<svg width="720" height="260" viewBox="0 0 720 260" fill="none" xmlns="http://www.w3.org/2000/svg" role="img" aria-labelledby="title desc">
  <title id="title">MINA - Logo La Veta Oculta</title>
  <desc id="desc">Propuesta de logotipo para MINA con un símbolo azul y una veta dorada emergiendo desde capas inferiores.</desc>
  <rect width="720" height="260" rx="28" fill="#F2EDE3"/>
  <g transform="translate(86 55)">
    <circle cx="75" cy="75" r="75" fill="#1A40B8"/>
    <path d="M31 75C42 57 58 48 75 48C92 48 108 57 119 75C108 93 92 102 75 102C58 102 42 93 31 75Z" stroke="#FFFFFF" stroke-width="5" stroke-linecap="round" stroke-linejoin="round" opacity=".16"/>
    <path d="M75 47L100 72L75 102L50 72L75 47Z" fill="#F59E0B"/>
    <path d="M75 47L100 72H50L75 47Z" fill="#FFB22E"/>
    <path d="M75 102L62 72H88L75 102Z" fill="#C77908" opacity=".34"/>
  </g>
  <g transform="translate(282 83)" fill="#1A40B8">
    <path d="M0 91V0H18.6L51.3 52.6L83.8 0H102.4V91H82.6V33.4L56.5 75.1H45.8L19.7 33.4V91H0Z"/>
    <path d="M131.2 91V0H151V91H131.2Z"/>
    <path d="M179.8 91V0H197L239.8 56.6V0H259.2V91H242.1L199.2 34.4V91H179.8Z"/>
    <path d="M282.4 91L319.7 0H337.5L374.8 91H353.8L346.4 72H310L302.6 91H282.4ZM316.5 55.5H339.9L328.2 25.4L316.5 55.5Z"/>
  </g>
  <text x="284" y="196" fill="#5B6675" font-family="Manrope, Arial, sans-serif" font-size="18" font-weight="600" letter-spacing=".18em">INTELIGENCIA EMPRESARIAL</text>
</svg>
